<?xml version="1.0" encoding="UTF-8"?>
<svg id="uuid-3059212f-8ff5-4542-9b60-a4b6fd5b78ee" data-name="Capa 2" xmlns="http://www.w3.org/2000/svg" viewBox="0 0 114.83 114.83">
  <g id="uuid-d4c933cb-0612-4226-a52a-4e9ceeaa1064" data-name="Capa 1">
    <g>
      <circle cx="57.42" cy="57.42" r="57.42" style="fill: #1d1d1b; opacity: .65; stroke-width: 0px;"/>
      <g style="opacity: .86;">
        <g>
          <path d="M41.21,57.27c0,2.42-.94,4.55-2.79,6.33-1.84,1.76-4.06,2.66-6.58,2.66s-4.7-.64-6.54-1.9c-1.3-.89-2.3-2.15-2.98-3.75-.25-.58-.46-1.21-.62-1.89-.03-.14-.06-.27-.09-.41l-.03-.14c-.08-.36.2-.7.57-.7h4.13c.3,0,.57.2.66.48h0c.1.33.22.63.35.92.85,1.86,2.27,2.76,4.33,2.76,1.2,0,2.23-.4,3.12-1.24.88-.82,1.31-1.73,1.31-2.8,0-.22-.01-.43-.04-.64-.06-.46-.2-.91-.41-1.34-.2-.41-.46-.81-.79-1.2-.8-.94-2.18-1.43-4.11-1.47h-.11c-.32,0-.57-.27-.57-.58v-3.54c0-.32.25-.57.57-.58h.11c1.47-.03,2.62-.38,3.43-1.05.77-.64,1.15-1.45,1.15-2.46,0-1.06-.36-1.94-1.1-2.68-.74-.74-1.62-1.1-2.68-1.1-1,0-1.8.24-2.37.72-.6.5-1.1,1.35-1.49,2.51l-.03.08c-.08.24-.3.4-.55.4h-4.11c-.35,0-.61-.3-.58-.64v-.12c.29-2.44,1.27-4.33,2.93-5.63,1.64-1.28,3.64-1.92,5.94-1.92,2.64,0,4.86.77,6.61,2.29,1.77,1.54,2.67,3.51,2.67,5.83s-.91,4.15-2.71,5.59c-.3.24-.29.69.02.92,1.56,1.13,2.58,2.49,3.06,4.06.12.39.21.8.26,1.22.04.33.06.66.06,1Z" style="fill: #fff; stroke-width: 0px;"/>
          <path d="M63.68,54.86c-.21-2.16-1.22-4.1-3.01-5.78-2.02-1.89-4.39-2.86-7.06-2.86h-.04s-.39.02-.39.02l5.07-7.42h0c.21-.31.14-.74-.18-.96h0s-2.78-1.92-2.78-1.92h0c-.31-.22-.74-.14-.96.17h0l-9.56,13.81c-1.07,1.54-1.69,3.21-1.87,4.98-.04.36-.06.72-.06,1.08,0,.04,0,.08,0,.12.03,2.79,1.07,5.21,3.08,7.19,2.04,2.01,4.54,3.02,7.42,3.02s5.36-1.04,7.37-3.09c1.93-1.98,2.94-4.4,3.01-7.21,0-.1,0-.19,0-.29,0-.3-.01-.59-.04-.88ZM56.99,59.55c-1.02,1.02-2.23,1.52-3.69,1.52s-2.72-.49-3.75-1.51c-1.03-1.02-1.53-2.23-1.53-3.7,0-.04,0-.08,0-.11,0-.39.05-.76.14-1.12.22-.91.7-1.72,1.44-2.47,1.07-1.07,2.27-1.59,3.69-1.59s2.61.51,3.66,1.57c.73.74,1.2,1.55,1.41,2.47.08.35.13.72.14,1.11,0,.05,0,.1,0,.15,0,1.46-.5,2.67-1.52,3.69Z" style="fill: #fff; stroke-width: 0px;"/>
          <path d="M82.99,40.62c-1.97-2.82-4.58-4.26-7.74-4.26h-.21c-2.96,0-5.52,1.37-7.62,4.08-2.05,2.65-3.1,6.38-3.1,11.07,0,1.19.08,2.33.24,3.41.06.41.13.81.21,1.2.48,2.26,1.33,4.24,2.54,5.94,2.04,2.83,4.65,4.27,7.76,4.27s5.57-1.4,7.68-4.16c.47-.62.89-1.28,1.25-1.99.28-.54.53-1.12.75-1.72.74-2.06,1.12-4.45,1.12-7.15,0-4.34-.97-7.94-2.89-10.68ZM79.73,57.05c-.2.52-.44,1.01-.7,1.46-.01.02-.02.04-.03.05-1.02,1.69-2.28,2.52-3.84,2.52-1.65,0-2.97-.83-4.04-2.52-.34-.53-.62-1.13-.85-1.77-.16-.43-.29-.89-.4-1.37-.28-1.2-.42-2.54-.42-4.03,0-3.01.56-5.45,1.66-7.26,1.05-1.72,2.35-2.56,3.97-2.56s2.84.85,3.91,2.59c1.12,1.83,1.68,4.22,1.68,7.1,0,2.25-.31,4.19-.93,5.79Z" style="fill: #fff; stroke-width: 0px;"/>
        </g>
        <g>
          <path d="M98.45,64.27c0,.69-.13,1.38-.38,1.98-.24.61-.58,1.15-.95,1.62-.37.47-.77.89-1.19,1.27-.42.38-.86.73-1.3,1.04-1.78,1.26-3.68,2.18-5.59,2.98-1.92.8-3.87,1.46-5.83,2.04-1.97.58-3.95,1.08-5.94,1.51-6.11,1.33-11.31,2.07-17.52,2.35l5.27-2.93-4.73-2.29c1.85-.05,2.7-.13,4.54-.23,3.91-.22,7.81-.56,11.68-1.1,1.93-.27,3.85-.6,5.75-1,1.9-.41,3.77-.89,5.59-1.49.91-.31,1.8-.64,2.66-1.02.43-.19.85-.39,1.26-.6.41-.21.81-.44,1.19-.68.38-.24.74-.5,1.08-.77.33-.27.64-.56.9-.86.26-.3.47-.61.61-.92.14-.31.22-.61.23-.92,0-.31-.05-.62-.17-.95-.12-.32-.32-.66-.56-.98-.25-.32-.54-.63-.87-.93-.32-.3-.68-.58-1.05-.84-.37-.27-.76-.52-1.17-.76-.4-.24-.82-.47-1.25-.69-.54-.27-1.57-.73-2.3-1.04-.14-.06-.23-.2-.21-.36h0c.02-.22.23-.36.44-.31,2.49.59,6.18,2.08,7.78,3.4.17.14.43.36.69.6.72.68,1.21,1.58,1.33,2.56.01.1.02.2.02.28Z" style="fill: #fff; stroke-width: 0px;"/>
          <path d="M62.51,76.21l-15.17-6.91,1.42,4.61c-2.33-.05-5.13-.16-7.41-.29-3.91-.23-7.81-.57-11.67-1.11-1.93-.27-3.85-.6-5.75-1.01-1.89-.41-3.77-.89-5.58-1.5-.9-.31-1.79-.64-2.65-1.02-.43-.19-.85-.39-1.26-.6-.41-.21-.81-.44-1.19-.68-.38-.24-.74-.49-1.07-.76-.33-.27-.64-.55-.89-.85-.26-.3-.46-.6-.6-.91-.14-.3-.22-.6-.23-.9,0-.3.05-.61.17-.93.12-.32.31-.65.56-.97.24-.32.54-.63.86-.92.32-.29.67-.58,1.05-.84.37-.27.76-.52,1.17-.76.4-.24.82-.47,1.24-.68.39-.2,1.05-.5,1.49-.7.04-.02.08-.04.11-.07.25-.11.49-.21.71-.31.14-.06.23-.2.21-.36-.02-.19-.17-.32-.35-.32-.03,0-.05,0-.08,0-.17.04-.35.09-.54.14-2.46.66-5.75,2.04-7.25,3.27-.16.14-.43.36-.69.6-.72.68-1.2,1.58-1.33,2.56-.01.1-.02.2-.02.28,0,.69.14,1.38.38,1.98.25.61.58,1.15.95,1.62.37.47.77.89,1.19,1.27.42.38.86.73,1.3,1.04,1.78,1.26,3.68,2.18,5.59,2.98,1.92.8,3.87,1.46,5.83,2.04,1.97.58,3.95,1.08,5.94,1.51,1.18.26,2.33.49,3.45.71,4.56.8,9.28,1.29,13.88,1.55.84.05,1.67.08,2.5.11l-1.31,5.04,15.07-7.93Z" style="fill: #fff; stroke-width: 0px;"/>
        </g>
        <path d="M89.45,41.36c-2.28,0-4.14-1.86-4.14-4.14s1.86-4.14,4.14-4.14,4.14,1.86,4.14,4.14-1.86,4.14-4.14,4.14ZM89.45,34.74c-1.37,0-2.48,1.11-2.48,2.48s1.11,2.48,2.48,2.48,2.48-1.11,2.48-2.48-1.11-2.48-2.48-2.48Z" style="fill: #fff; stroke-width: 0px;"/>
      </g>
    </g>
  </g>
</svg>