<?xml version="1.0" encoding="UTF-8"?>
<svg id="uuid-f2ed2ee9-3c86-4b39-aeef-8f84210fde8c" data-name="Capa 2" xmlns="http://www.w3.org/2000/svg" xmlns:xlink="http://www.w3.org/1999/xlink" viewBox="0 0 103.68 90.55">
  
  <g id="uuid-9140bbe2-edf3-42b9-96b5-f755396c0f09" data-name="Capa 1">
    <g >
      <path d="M56.99,78.1l-.9-16.95c-.12-1.88-.78-3.78-2.32-5.1l-9.43-7.89,2.98-9.16" style="fill: none; stroke: #fff; stroke-linecap: round; stroke-linejoin: round; stroke-width: 3px;"/>
      <polyline points="29.95 84.67 37.92 69.51 38.69 65.82" style="fill: none; stroke: #fff; stroke-linecap: round; stroke-linejoin: round; stroke-width: 3px;"/>
      <polyline points="29.84 59.6 28.6 67.2 21.35 84.67" style="fill: none; stroke: #fff; stroke-linecap: round; stroke-linejoin: round; stroke-width: 3px;"/>
      <path d="M43.32,34.3l6.3,7.42c.73.86,1.69,1.36,2.83,1.36h10.81c1.92,0,3.54-1.31,3.85-3.21.39-2.42-1.53-4.28-3.8-4.5l-7.71-.99s-4.1-5.98-7.03-10.23c-2.44-3.53-10.64-4.14-12.53,1.16l-5.15,17.91c-1.59,6.3.67,9.86,4.78,12.56,4.11,2.7,11.28,7.43,11.28,7.43l2.05,14.89" style="fill: none; stroke: #fff; stroke-linecap: round; stroke-linejoin: round; stroke-width: 3px;"/>
      <line x1="64.97" y1="42.71" x2="64.97" y2="73.73" style="fill: none; stroke: #fff; stroke-linecap: round; stroke-linejoin: round; stroke-width: 3px;"/>
      <line x1="64.97" y1="26.35" x2="64.97" y2="35.86" style="fill: none; stroke: #fff; stroke-linecap: round; stroke-linejoin: round; stroke-width: 3px;"/>
      <path d="M49.65,1.5c-3.63,0-6.57,3.06-6.57,6.84v1.64c0,3.78,2.94,6.84,6.57,6.84s6.57-3.06,6.57-6.84v-1.64c0-3.78-2.94-6.84-6.57-6.84Z" style="fill: none; stroke: #fff; stroke-linecap: round; stroke-linejoin: round; stroke-width: 3px;"/>
      <path d="M36.04,25.32l.68-2.37c.73-2.56-.74-5.23-3.3-5.96l-3-.86c-2.56-.74-5.23.74-5.96,3.3l-6.34,22.09c-.74,2.56.74,5.23,3.3,5.96l3,.86c2.56.74,5.23-.74,5.96-3.3l.82-2.87" style="fill: none; stroke: #fff; stroke-linecap: round; stroke-linejoin: round; stroke-width: 3px;"/>
      <polyline points="1.5 89.05 10.25 89.05 16.82 84.67 36.52 84.67 43.08 78.1 60.52 78.1 64.9 73.73 71.54 73.73 78.1 62.78 86.86 58.4 93.42 49.65 102.18 47.46" style="fill: none; stroke: #fff; stroke-linecap: round; stroke-linejoin: round; stroke-width: 3px;"/>
    </g>
  </g>
</svg>