<?xml version="1.0" encoding="UTF-8"?>
<svg id="uuid-24316d4c-f61d-4ea2-b0a6-9b578a48a5b4" data-name="Capa 2" xmlns="http://www.w3.org/2000/svg" xmlns:xlink="http://www.w3.org/1999/xlink" viewBox="0 0 105.98 86.27">
  
 
  <g id="uuid-c618d02a-935f-416f-b643-fb960f7792ca" data-name="Capa 1">
    <g >
      <path d="M103.02,86.27h2.96l-25.06-39.13-8.9,13.89-17.25-26.93v-14.39l21.12-9.31L52.28,0v34.1l-17.79,27.78-9.44-14.74L0,86.27h2.96l22.1-34.5,7.96,12.42-14.13,22.06h2.96l31.68-49.47,31.68,49.47h2.96l-14.67-22.9,7.41-11.58,22.09,34.5ZM54.78,3.83l14.93,6.58-14.93,6.58V3.83Z" style="fill: #fff; stroke-width: 0px;"/>
      <path d="M53.53,38.54c-.7,0-1.28.57-1.28,1.28s.57,1.28,1.28,1.28,1.28-.57,1.28-1.28-.57-1.28-1.28-1.28Z" style="fill: #fff; stroke-width: 0px;"/>
      <path d="M56.87,65.52c.7,0,1.28-.57,1.28-1.28s-.57-1.28-1.28-1.28-1.28.57-1.28,1.28.57,1.28,1.28,1.28Z" style="fill: #fff; stroke-width: 0px;"/>
      <path d="M58.17,48.8c-.7,0-1.28.57-1.28,1.28s.57,1.28,1.28,1.28,1.28-.57,1.28-1.28-.57-1.28-1.28-1.28Z" style="fill: #fff; stroke-width: 0px;"/>
      <path d="M55.61,46.69c-.7,0-1.28.57-1.28,1.28s.57,1.28,1.28,1.28,1.28-.57,1.28-1.28-.57-1.28-1.28-1.28Z" style="fill: #fff; stroke-width: 0px;"/>
      <path d="M48.96,61.72c0,.7.57,1.28,1.28,1.28s1.28-.57,1.28-1.28-.57-1.28-1.28-1.28-1.28.57-1.28,1.28Z" style="fill: #fff; stroke-width: 0px;"/>
      <path d="M47.94,73.02c-.7,0-1.28.57-1.28,1.28s.57,1.28,1.28,1.28,1.28-.57,1.28-1.28-.57-1.28-1.28-1.28Z" style="fill: #fff; stroke-width: 0px;"/>
      <path d="M51.25,42.9c0,.7.57,1.28,1.28,1.28s1.28-.57,1.28-1.28-.57-1.28-1.28-1.28-1.28.57-1.28,1.28Z" style="fill: #fff; stroke-width: 0px;"/>
      <path d="M50.03,55.46c0,.7.57,1.28,1.28,1.28s1.28-.57,1.28-1.28-.57-1.28-1.28-1.28-1.28.57-1.28,1.28Z" style="fill: #fff; stroke-width: 0px;"/>
      <path d="M58.74,51.89c-1.15,0-2.08.93-2.08,2.08s.93,2.08,2.08,2.08,2.08-.93,2.08-2.08-.93-2.08-2.08-2.08Z" style="fill: #fff; stroke-width: 0px;"/>
      <path d="M59.01,65.32c0,.7.57,1.28,1.28,1.28s1.28-.57,1.28-1.28-.57-1.28-1.28-1.28-1.28.57-1.28,1.28Z" style="fill: #fff; stroke-width: 0px;"/>
      <path d="M55.91,54.27c0-.7-.57-1.28-1.28-1.28s-1.28.57-1.28,1.28.57,1.28,1.28,1.28,1.28-.57,1.28-1.28Z" style="fill: #fff; stroke-width: 0px;"/>
      <path d="M42.28,76.7c-1.15,0-2.08.93-2.08,2.08s.93,2.08,2.08,2.08,2.08-.93,2.08-2.08-.93-2.08-2.08-2.08Z" style="fill: #fff; stroke-width: 0px;"/>
      <path d="M53.56,64.4c.7,0,1.27-.57,1.27-1.28s-.57-1.28-1.27-1.28-1.28.57-1.28,1.28.57,1.28,1.28,1.28Z" style="fill: #fff; stroke-width: 0px;"/>
      <path d="M54.09,45.99c0-.7-.57-1.28-1.28-1.28s-1.28.57-1.28,1.28.57,1.28,1.28,1.28,1.28-.57,1.28-1.28Z" style="fill: #fff; stroke-width: 0px;"/>
      <path d="M44.11,60.45c0,1.15.93,2.08,2.08,2.08s2.08-.93,2.08-2.08-.93-2.08-2.08-2.08-2.08.93-2.08,2.08Z" style="fill: #fff; stroke-width: 0px;"/>
      <path d="M56.2,72.98c0-.7-.57-1.28-1.28-1.28s-1.28.57-1.28,1.28.57,1.28,1.28,1.28,1.28-.57,1.28-1.28Z" style="fill: #fff; stroke-width: 0px;"/>
      <path d="M55.87,82.32c-.7,0-1.28.57-1.28,1.27s.57,1.28,1.28,1.28,1.28-.57,1.28-1.28-.57-1.27-1.28-1.27Z" style="fill: #fff; stroke-width: 0px;"/>
      <path d="M60.24,81.49c-1.24,0-2.25,1.01-2.25,2.25s1,2.25,2.25,2.25,2.25-1.01,2.25-2.25-1-2.25-2.25-2.25Z" style="fill: #fff; stroke-width: 0px;"/>
      <path d="M59.65,72.23c0-.7-.57-1.28-1.28-1.28s-1.28.57-1.28,1.28.57,1.28,1.28,1.28,1.28-.57,1.28-1.28Z" style="fill: #fff; stroke-width: 0px;"/>
      <path d="M64.92,66.55c0-.7-.57-1.28-1.28-1.28s-1.28.57-1.28,1.28.57,1.28,1.28,1.28,1.28-.57,1.28-1.28Z" style="fill: #fff; stroke-width: 0px;"/>
      <path d="M48.19,55.42c-.7,0-1.28.57-1.28,1.28s.57,1.28,1.28,1.28,1.28-.57,1.28-1.28-.57-1.28-1.28-1.28Z" style="fill: #fff; stroke-width: 0px;"/>
      <path d="M61.75,69.9c-.7,0-1.28.57-1.28,1.28s.57,1.28,1.28,1.28,1.27-.57,1.27-1.28-.57-1.28-1.27-1.28Z" style="fill: #fff; stroke-width: 0px;"/>
      <path d="M43.33,75.47c0,.7.57,1.28,1.28,1.28s1.28-.57,1.28-1.28-.57-1.28-1.28-1.28-1.28.57-1.28,1.28Z" style="fill: #fff; stroke-width: 0px;"/>
      <path d="M65.74,67.83c-1.15,0-2.08.93-2.08,2.08s.93,2.08,2.08,2.08,2.08-.93,2.08-2.08-.93-2.08-2.08-2.08Z" style="fill: #fff; stroke-width: 0px;"/>
      <path d="M45.85,79.54c-.71,0-1.28.57-1.28,1.27s.57,1.28,1.28,1.28,1.28-.57,1.28-1.28-.57-1.27-1.28-1.27Z" style="fill: #fff; stroke-width: 0px;"/>
      <path d="M52.65,73.57c0-.7-.57-1.28-1.28-1.28s-1.28.57-1.28,1.28.57,1.28,1.28,1.28,1.28-.57,1.28-1.28Z" style="fill: #fff; stroke-width: 0px;"/>
      <path d="M48.99,81.12c-.7,0-1.28.57-1.28,1.28s.57,1.28,1.28,1.28,1.28-.57,1.28-1.28-.57-1.28-1.28-1.28Z" style="fill: #fff; stroke-width: 0px;"/>
      <path d="M52.32,81.9c-.7,0-1.28.57-1.28,1.28s.57,1.28,1.28,1.28,1.28-.57,1.28-1.28-.57-1.28-1.28-1.28Z" style="fill: #fff; stroke-width: 0px;"/>
    </g>
  </g>
</svg>