<?xml version="1.0" encoding="UTF-8"?>
<svg id="uuid-c9e92e57-e2c4-4f7a-8c66-0610f306a1bd" data-name="Capa 2" xmlns="http://www.w3.org/2000/svg" viewBox="0 0 35.38 41.62">
  <defs>
    <style>
      .uuid-a10335fd-930d-4fbc-b778-fe90a42a5477 {
        fill: #fff;
        stroke-width: 0px;
      }
    </style>
  </defs>
  <g id="uuid-560dee56-a215-4256-b66e-99d1ddf15912" data-name="Capa 1">
    <g>
      <path class="uuid-a10335fd-930d-4fbc-b778-fe90a42a5477" d="m26.06,5.9c1.63,0,2.95-1.32,2.95-2.95s-1.32-2.95-2.95-2.95-2.95,1.32-2.95,2.95,1.32,2.95,2.95,2.95"/>
      <path class="uuid-a10335fd-930d-4fbc-b778-fe90a42a5477" d="m25,23.28c-.11-.08-.22-.15-.33-.22h0,0s-.08-.05-.12-.07l-1.69-.95-6.95-4.02h0s-.03,0-.03,0l-10.89,18.87-.5.86c-.07.1-.13.2-.18.31h0s0,0,0,0c-.02.03-.03.07-.05.1h0s0,.02,0,.02c-.13.31-.21.65-.21,1.02,0,1.34,1.01,2.43,2.25,2.43.74,0,1.4-.38,1.81-.98l.63-1.08,2.89-5,11.87-3.18c.14-.03.28-.07.42-.11l.13-.03h0c1.64-.61,2.81-2.28,2.81-4.24,0-.87-.23-1.68-.63-2.36-.31-.54-.72-1-1.21-1.35m-6.37,4.66l-3.79,1.01,2.71-4.7,1.39.8,3.31,1.91-3.62.97Z"/>
      <path class="uuid-a10335fd-930d-4fbc-b778-fe90a42a5477" d="m5.22,21.31l.37,1.03,1.02-.17.27-.05,4.99-.84-2.13-1.25,4.08-7.07,5.76-1.22h0c.94-.25,1.64-1.16,1.64-2.24,0-1.26-.95-2.29-2.13-2.29-.18,0-.36.03-.53.07l-7.66,1.62h-.02s-5.1,8.82-5.1,8.82l-2.34-1.37,1.68,4.72.09.26Z"/>
      <polygon class="uuid-a10335fd-930d-4fbc-b778-fe90a42a5477" points="3.2 16.46 0 21.92 4.86 21.1 3.2 16.46"/>
      <polygon class="uuid-a10335fd-930d-4fbc-b778-fe90a42a5477" points="8.65 27.07 11.89 21.55 6.98 22.38 8.65 27.07"/>
      <polygon class="uuid-a10335fd-930d-4fbc-b778-fe90a42a5477" points="6.71 22.42 5.68 22.6 5.41 22.64 5.32 22.38 4.95 21.36 0 22.2 8.38 27.11 6.71 22.42"/>
      <path class="uuid-a10335fd-930d-4fbc-b778-fe90a42a5477" d="m33.22,6.71c-.8,0-1.51.44-1.88,1.09-.06.11-.12.23-.16.35h0s-.21.47-.21.47l-1.57,3.52s0,0,0,0h-4.64s0,0,0,0l-2.32,4.18s0,.01,0,.01h9.79s0,0,0,0v-.03s0,0,0,0c0,0,0,0,0,0l2.47-5.55.56-1.26s0,0,0,0c.06-.2.09-.41.09-.63,0-1.19-.96-2.15-2.15-2.15"/>
    </g>
  </g>
</svg>