<?xml version="1.0" encoding="UTF-8"?>
<svg id="Capa_1" data-name="Capa 1" xmlns="http://www.w3.org/2000/svg" viewBox="0 0 114.84 114.84">
  <defs>
    <style>
      .cls-1 {
        fill: #fff;
        fill-rule: evenodd;
        stroke-width: 0px;
      }
    </style>
  </defs>
  <path class="cls-1" d="M57.42,0C25.73,0,0,25.73,0,57.42s25.73,57.42,57.42,57.42,57.42-25.73,57.42-57.42S89.11,0,57.42,0h0ZM57.42,52.01l-16.43-16.43c-1.49-1.49-3.92-1.49-5.41,0-1.49,1.49-1.49,3.92,0,5.41l16.43,16.43-16.43,16.43c-1.49,1.49-1.49,3.92,0,5.41,1.49,1.49,3.92,1.49,5.41,0l16.43-16.43,16.43,16.43c1.49,1.49,3.92,1.49,5.41,0,1.49-1.49,1.49-3.92,0-5.41l-16.43-16.43,16.43-16.43c1.49-1.49,1.49-3.92,0-5.41-1.49-1.49-3.92-1.49-5.41,0l-16.43,16.43h0Z"/>
</svg>