<?xml version="1.0" encoding="UTF-8"?>
<svg id="uuid-67bf61f3-378f-4a21-9846-0cb8be4b4215" data-name="Capa 2" xmlns="http://www.w3.org/2000/svg" viewBox="0 0 51.89 51.89">
  <g id="uuid-d0726665-c8dc-4a92-976a-b8915e0e1925" data-name="Capa 1">
    <path d="M32.75,25.95l17.74-17.74c1.88-1.88,1.88-4.92,0-6.8-1.88-1.88-4.92-1.88-6.8,0l-17.74,17.74L8.21,1.41C6.33-.47,3.29-.47,1.41,1.41-.47,3.29-.47,6.33,1.41,8.21l17.74,17.74L1.41,43.69c-1.88,1.88-1.88,4.92,0,6.8,1.88,1.88,4.92,1.88,6.8,0l17.74-17.74,17.74,17.74c1.88,1.88,4.92,1.88,6.8,0,1.88-1.88,1.88-4.92,0-6.8l-17.74-17.74Z" style="fill: #fff; stroke-width: 0px;"/>
  </g>
</svg>