<?xml version="1.0" encoding="UTF-8"?>
<svg id="uuid-88cf1a80-2f66-4cd2-aca0-5d99ac7d0b40" data-name="Capa 2" xmlns="http://www.w3.org/2000/svg" viewBox="0 0 24.37 20.83">
  <g id="uuid-ca635f72-7dc9-4293-a627-be5c6c365dee" data-name="Capa 1">
    <g>
      <g>
        <circle cx="17.93" cy="12.18" r=".44" style="fill: #1d1d1b; stroke: #fff; stroke-miterlimit: 10; stroke-width: .25px;"/>
        <circle cx="14.39" cy="12.62" r=".44" style="fill: #1d1d1b; stroke: #fff; stroke-miterlimit: 10; stroke-width: .25px;"/>
      </g>
      <g>
        <line x1="21.02" y1="14.23" x2="21.03" y2="14.23" style="fill: none; stroke: #fff; stroke-linecap: round; stroke-linejoin: round; stroke-width: .5px;"/>
        <path d="M6.44,20.58s1.31-2.21,3.09-2.21c1.38,0,4.49.88,6.19.88,1.25,0,5.3-2.21,5.3-2.21l3.09-3.54s-.35-.44-.88-.44c-.25,0-.53.1-.85.27-.43.23-.9.57-1.36.9-.72.53-1.39,1.04-1.77,1.04" style="fill: none; stroke: #fff; stroke-linecap: round; stroke-linejoin: round; stroke-width: .5px;"/>
        <path d="M11.74,16.16s2.6.88,3.54.88c1.22,0,3.98-1.77,3.98-1.77,0,0-.3-.88-1.33-.88-.96,0-2.65.44-2.65.44l-2.65-1.33s-1.21-1.32-3.06-1.68c-.29-.06-.6-.09-.92-.09-2.67,0-5.3,3.98-5.3,3.98l-3.09,2.21" style="fill: none; stroke: #fff; stroke-linecap: round; stroke-linejoin: round; stroke-width: .5px;"/>
        <path d="M20.58,12.62c.72-1.09,1.07-1.33,2.21-1.33l-.41,2.03" style="fill: none; stroke: #fff; stroke-linecap: round; stroke-linejoin: round; stroke-width: .5px;"/>
        <path d="M9.57,11.83c.59-.27,2.16-1.86,2.62-1.86.08,0,.16.03.25.07.41.19.87.78,1.07.81" style="fill: none; stroke: #fff; stroke-linecap: round; stroke-linejoin: round; stroke-width: .5px;"/>
        <path d="M12.43,10.05h0c.11-.11,1.78-1.84,2.4-1.84s1.88,1.23,2.23,1.34" style="fill: none; stroke: #fff; stroke-linecap: round; stroke-linejoin: round; stroke-width: .5px;"/>
        <path d="M16.16,10.42s.42-.58.95-.8c.12-.05.25-.08.38-.08.68,0,1.6,1.33,1.6,1.33.14.3.96.85,1.5,1.77.26.45.44.98.44,1.6" style="fill: none; stroke: #fff; stroke-linecap: round; stroke-linejoin: round; stroke-width: .5px;"/>
        <path d="M20.58.25c-.44,1.74-.46,3.47-1.62,4.58-1.01.97-2.41.72-4.13.72,0-3.7,5.14-4.39,5.75-5.3Z" style="fill: none; stroke: #fff; stroke-linecap: round; stroke-linejoin: round; stroke-width: .5px;"/>
        <path d="M17.49,3.79s-1.63.44-2.65,1.77" style="fill: none; stroke: #fff; stroke-linecap: round; stroke-linejoin: round; stroke-width: .5px;"/>
        <line x1="14.83" y1="5.55" x2="14.83" y2="8.21" style="fill: none; stroke: #fff; stroke-linecap: round; stroke-linejoin: round; stroke-width: .5px;"/>
        <path d="M14.83,5.55c-.44,0-4.34.42-4.86-3.09,1.22,0,4.86.3,4.86,3.09Z" style="fill: none; stroke: #fff; stroke-linecap: round; stroke-linejoin: round; stroke-width: .5px;"/>
      </g>
    </g>
  </g>
</svg>