<?xml version="1.0" encoding="UTF-8"?>
<svg id="uuid-05fc6006-ebb5-4d28-afc2-7c0885d78f12" data-name="Capa 2" xmlns="http://www.w3.org/2000/svg" xmlns:xlink="http://www.w3.org/1999/xlink" viewBox="0 0 70.84 70.3">
  
  <g id="uuid-bac18b08-0c40-4c95-91e3-114fd7fda42e" data-name="Capa 1">
    <g >
      <path d="M0,32.66c.29-.75.26-1.55.38-2.33C1.99,20.01,7.13,11.87,15.71,6.01,22.28,1.52,29.67-.39,37.62.07c6.11.35,11.76,2.23,16.9,5.57.45.29.68.34.99-.18.55-.9,1.18-1.75,1.8-2.62.24-.34.5-.71.99-.62.49.09.61.53.72.92.85,3.03,1.7,6.06,2.52,9.1.36,1.31-.26,2.15-1.63,2.27-3.05.28-6.1.55-9.15.82-.16.01-.32.02-.48.02-.86-.03-1.18-.55-.72-1.29.6-.96,1.22-1.9,1.91-2.79.39-.51.27-.68-.23-.99-4.93-3.08-10.31-4.63-16.11-4.57-6.39.07-12.23,1.97-17.37,5.8-5.87,4.37-9.66,10.14-11.33,17.29-.82,3.54-.94,7.11-.41,10.7,1.13,7.77,4.73,14.15,10.84,19.09,3.85,3.11,8.24,5.07,13.09,6.02,2.18.43,3.18,2.59,2.08,4.34-.62.98-1.81,1.51-2.99,1.28-8.55-1.65-15.62-5.84-21.14-12.57C3.35,52.11.87,45.67.14,38.53c-.01-.12.04-.29-.14-.34v-.97c.23-1.15.23-2.31,0-3.46v-1.11Z" style="fill: #fff; stroke-width: 0px;"/>
      <path d="M0,33.76c.23,1.15.23,2.31,0,3.46v-3.46Z" style="fill: #fff; stroke-width: 0px;"/>
      <path d="M35.96,24.54c0,3.23.01,6.45-.01,9.68,0,.48.15.72.58.94,5.89,3.02,11.76,6.07,17.64,9.11,1.13.59,1.67,1.46,1.52,2.45-.24,1.63-1.85,2.49-3.38,1.75-1.28-.62-2.54-1.3-3.8-1.95-5.53-2.86-11.06-5.72-16.6-8.57-.41-.21-.55-.43-.55-.89.02-7.35,0-14.7.01-22.06,0-1.39.71-2.35,1.84-2.55,1.5-.26,2.74.77,2.75,2.33.02,3.25,0,6.5,0,9.75Z" style="fill: #fff; stroke-width: 0px;"/>
      <path d="M46.08,67.03c0,1.25-.77,2.32-1.99,2.68-.79.23-1.61.41-2.42.53-1.44.22-2.78-.76-3.12-2.22-.32-1.39.49-2.85,1.87-3.27.79-.24,1.6-.43,2.42-.54,1.8-.24,3.25,1.06,3.24,2.82Z" style="fill: #fff; stroke-width: 0px;"/>
      <path d="M65.12,35.15c0-.32,0-.64,0-.97.05-1.63,1.2-2.83,2.74-2.89,1.48-.06,2.77,1.08,2.91,2.65.07.82.08,1.66,0,2.48-.14,1.48-1.47,2.62-2.86,2.55-1.53-.08-2.69-1.21-2.77-2.72-.02-.37,0-.74,0-1.1,0,0-.02,0-.02,0Z" style="fill: #fff; stroke-width: 0px;"/>
      <path d="M69.31,45.36c-.21,1.01-.51,2.27-1.24,3.35-.74,1.09-2.21,1.41-3.39.85-1.31-.61-1.96-1.91-1.58-3.31.22-.8.5-1.58.83-2.34.53-1.23,1.87-1.85,3.21-1.57,1.26.27,2.18,1.43,2.18,3.01Z" style="fill: #fff; stroke-width: 0px;"/>
      <path d="M61.48,52.14c1.08.03,1.9.51,2.43,1.44.55.96.54,1.96-.07,2.88-.5.74-1.07,1.45-1.68,2.09-.98,1.02-2.61,1.08-3.71.2-1.08-.85-1.43-2.44-.71-3.61.51-.85,1.14-1.62,1.85-2.31.51-.5,1.17-.72,1.9-.69Z" style="fill: #fff; stroke-width: 0px;"/>
      <path d="M66.05,28c-.96-.05-1.86-.59-2.34-1.72-.31-.74-.58-1.5-.8-2.26-.39-1.36.33-2.78,1.64-3.32,1.31-.54,2.83-.06,3.51,1.19.5.9.86,1.88,1.06,2.89.32,1.68-1.1,3.26-3.07,3.22Z" style="fill: #fff; stroke-width: 0px;"/>
      <path d="M52.07,66.41c-1.54.03-2.65-.73-3.05-1.86-.41-1.14-.07-2.44.91-3.16.72-.53,1.49-1,2.28-1.41,1.05-.55,2.41-.25,3.23.62.85.89,1.1,2.31.41,3.31-.98,1.42-2.47,2.12-3.78,2.49Z" style="fill: #fff; stroke-width: 0px;"/>
    </g>
  </g>
</svg>